<?xml version="1.0" standalone="no"?><!DOCTYPE svg PUBLIC "-//W3C//DTD SVG 1.1//EN" "http://www.w3.org/Graphics/SVG/1.1/DTD/svg11.dtd"><svg t="1658395911510" class="icon" viewBox="0 0 1024 1024" version="1.1" xmlns="http://www.w3.org/2000/svg" p-id="5539" xmlns:xlink="http://www.w3.org/1999/xlink" width="200" height="200"><defs><style type="text/css">@font-face { font-family: feedback-iconfont; src: url("//at.alicdn.com/t/font_1031158_u69w8yhxdu.woff2?t=1630033759944") format("woff2"), url("//at.alicdn.com/t/font_1031158_u69w8yhxdu.woff?t=1630033759944") format("woff"), url("//at.alicdn.com/t/font_1031158_u69w8yhxdu.ttf?t=1630033759944") format("truetype"); }
</style></defs><path d="M290.1 171.3h-68.7c-1.9 0-3.5-1.6-3.5-3.5V44.5c0-1.9 1.6-3.5 3.5-3.5h68.7c1.9 0 3.5 1.6 3.5 3.5v123.4c0 1.9-1.5 3.4-3.5 3.4zM934 471.2c0 51.8-20.6 101.5-57.2 138.2-36.6 36.6-86.3 57.2-138.2 57.2-107.9 0-195.3-87.5-195.3-195.4" fill="#46A3FB" p-id="5540"></path><path d="M520.7 1003.9l-62-593.5h542.9l-52.3 593.5zM70.4 896.9h405.4M458.5 1006H53.1V710.2c0-10.4 8.4-18.8 18.7-18.8h367.9c10.4 0 18.7 8.4 18.7 18.8V1006z" fill="#46A3FB" p-id="5541"></path><path d="M255.8 706.5c-8.3 0-15-6.7-15-15V153.7c0-8.3 6.7-15 15-15s15 6.7 15 15v537.7c0 8.4-6.7 15.1-15 15.1z" fill="#46A3FB" p-id="5542"></path><path d="M638.356319 258.074587a10 10 0 1 0 19.658514-3.680057 10 10 0 1 0-19.658514 3.680057Z" fill="#E61F19" p-id="5543"></path><path d="M779 292.8a2.2 11.7 0 1 0 4.4 0 2.2 11.7 0 1 0-4.4 0Z" fill="#E61F19" p-id="5544"></path><path d="M789.37062 291.413967a11.7 2.2 60 1 0 3.810512-2.2 11.7 2.2 60 1 0-3.810512 2.2Z" fill="#E61F19" p-id="5545"></path><path d="M797.806053 284.971739a11.7 2.2 30 1 0 2.2-3.810512 11.7 2.2 30 1 0-2.2 3.810512Z" fill="#E61F19" p-id="5546"></path><path d="M790 273a11.7 2.2 0 1 0 23.4 0 11.7 2.2 0 1 0-23.4 0Z" fill="#E61F19" p-id="5547"></path><path d="M789.062503 268.75134a2.2 11.7 60 1 0 20.264994-11.7 2.2 11.7 60 1 0-20.264994 11.7Z" fill="#E61F19" p-id="5548"></path><path d="M786.165981 265.500177a2.2 11.7 30 1 0 11.7-20.264995 2.2 11.7 30 1 0-11.7 20.264995Z" fill="#E61F19" p-id="5549"></path><path d="M779.7 252.5a2.2 11.7 0 1 0 4.4 0 2.2 11.7 0 1 0-4.4 0Z" fill="#E61F19" p-id="5550"></path><path d="M769.876483 256.081849a11.7 2.2 60 1 0 3.810512-2.2 11.7 2.2 60 1 0-3.810512 2.2Z" fill="#E61F19" p-id="5551"></path><path d="M763.13094 264.111641a11.7 2.2 30 1 0 2.2-3.810512 11.7 2.2 30 1 0-2.2 3.810512Z" fill="#E61F19" p-id="5552"></path><path d="M749.7 272.3a11.7 2.2 0 1 0 23.4 0 11.7 2.2 0 1 0-23.4 0Z" fill="#E61F19" p-id="5553"></path><path d="M753.730251 288.244976a2.2 11.7 60 1 0 20.264995-11.7 2.2 11.7 60 1 0-20.264995 11.7Z" fill="#E61F19" p-id="5554"></path><path d="M765.356749 300.088186a2.2 11.7 30 1 0 11.7-20.264994 2.2 11.7 30 1 0-11.7 20.264994Z" fill="#E61F19" p-id="5555"></path><path d="M885.4 325m-14.2 0a14.2 14.2 0 1 0 28.4 0 14.2 14.2 0 1 0-28.4 0Z" fill="#2C65AF" p-id="5556"></path><path d="M784.1 189.1m-14.2 0a14.2 14.2 0 1 0 28.4 0 14.2 14.2 0 1 0-28.4 0Z" fill="#FFF35C" p-id="5557"></path><path d="M673.9 131.5c2.2 0 4 1.8 4 4v43.4c0 2.2-1.8 4-4 4s-4-1.8-4-4v-43.4c0-2.2 1.8-4 4-4z" fill="#F07FFD" p-id="5558"></path><path d="M652.2 153.2h43.4c2.2 0 4 1.8 4 4s-1.8 4-4 4h-43.4c-2.2 0-4-1.8-4-4s1.8-4 4-4z" fill="#F07FFD" p-id="5559"></path><path d="M964.6 269.2c4.5-2.3 6.7-6.8 5-10.1l-32.9-63.8c-1.7-3.3-6.7-4.1-11.1-1.8s-6.7 6.8-5 10.1l32.9 63.8c1.6 3.3 6.6 4.1 11.1 1.8z" fill="#7CCBE2" p-id="5560"></path><path d="M982.9 211.8c-2.3-4.5-6.8-6.7-10.1-5L909 239.7c-3.3 1.7-4.1 6.7-1.8 11.1 2.3 4.5 6.8 6.7 10.1 5l63.8-32.9c3.3-1.6 4.1-6.6 1.8-11.1z" fill="#7CCBE2" p-id="5561"></path><path d="M793.8 58.5c19.8 0 36 16 36 35.6s-16.1 35.6-36 35.6c-19.8 0-36-16-36-35.6s16.2-35.6 36-35.6z m0 61.9c14.6 0 26.5-11.8 26.5-26.2S808.4 68 793.8 68s-26.5 11.8-26.5 26.2 11.9 26.2 26.5 26.2z" fill="#E62A52" p-id="5562"></path><path d="M690 681.6c-56.2 0-109-21.9-148.7-61.6-39.7-39.7-61.6-92.6-61.6-148.8 0-8.3 6.7-15 15-15s15 6.7 15 15c0 99.5 80.9 180.4 180.3 180.4 48.2 0 93.5-18.8 127.5-52.8 34.1-34.1 52.8-79.4 52.8-127.6 0-8.3 6.7-15 15-15s15 6.7 15 15c0 27.8-5.4 54.9-16 80.5-10.6 25.7-26 48.6-45.6 68.3-19.6 19.6-42.6 35-68.2 45.6-25.7 10.6-52.8 16-80.5 16z" fill="#333333" p-id="5563"></path><path d="M922 997.3H466.1L401 373.8h575.9L967.4 481c-0.7 8.3-8 14.3-16.3 13.6-8.3-0.7-14.4-8-13.6-16.3l6.6-74.6H434.3l58.8 563.5h401.4l11.7-132.9c0.7-8.3 8-14.3 16.3-13.6 8.3 0.7 14.4 8 13.6 16.3L922 997.3z" fill="#333333" p-id="5564"></path><path d="M926.7 787.4c-0.4 0-0.9 0-1.3-0.1-8.3-0.7-14.4-8-13.6-16.3l6.1-69.1c0.7-8.3 8-14.3 16.3-13.6 8.3 0.7 14.4 8 13.6 16.3l-6.1 69.1c-0.7 7.8-7.3 13.7-15 13.7z" fill="#333333" p-id="5565"></path><path d="M936 681.5c-0.4 0-0.9 0-1.3-0.1-8.3-0.7-14.4-8-13.6-16.3l12.4-140.7c0.7-8.3 8-14.3 16.3-13.6 8.3 0.7 14.4 8 13.6 16.3L951 667.8c-0.7 7.8-7.3 13.7-15 13.7z" fill="#333333" p-id="5566"></path><path d="M21.7 881.9h405.4v30H21.7z" fill="#333333" p-id="5567"></path><path d="M442.1 999.4H6.7V688.6c0-18.6 15.1-33.8 33.8-33.8h367.9c18.6 0 33.8 15.1 33.8 33.8v310.8z m-405.4-30h375.4V688.6c0-2.1-1.7-3.8-3.8-3.8H40.5c-2.1 0-3.8 1.7-3.8 3.8v280.8z" fill="#333333" p-id="5568"></path><path d="M224.4 684.9c-8.3 0-15-6.7-15-15V433.6c0-8.3 6.7-15 15-15s15 6.7 15 15v236.2c0 8.3-6.7 15.1-15 15.1z" fill="#333333" p-id="5569"></path><path d="M224.4 403.8c-8.3 0-15-6.7-15-15v-80.2c0-8.3 6.7-15 15-15s15 6.7 15 15v80.2c0 8.3-6.7 15-15 15z" fill="#333333" p-id="5570"></path><path d="M224.4 283.7c-8.3 0-15-6.7-15-15V132.1c0-8.3 6.7-15 15-15s15 6.7 15 15v136.6c0 8.3-6.7 15-15 15z" fill="#333333" p-id="5571"></path><path d="M258.8 149.7h-68.7c-1.9 0-3.5-1.6-3.5-3.5V22.8c0-1.9 1.6-3.5 3.5-3.5h68.7c1.9 0 3.5 1.6 3.5 3.5v123.4c0 2-1.6 3.5-3.5 3.5z" fill="#333333" p-id="5572"></path><path d="M736 949H604c-8.3 0-15-6.7-15-15s6.7-15 15-15h132c8.3 0 15 6.7 15 15s-6.8 15-15 15zM858.7 949h-61.4c-8.3 0-15-6.7-15-15s6.7-15 15-15h61.4c8.3 0 15 6.7 15 15s-6.7 15-15 15z" fill="#FFFFFF" p-id="5573"></path></svg>