<?xml version="1.0" standalone="no"?><!DOCTYPE svg PUBLIC "-//W3C//DTD SVG 1.1//EN" "http://www.w3.org/Graphics/SVG/1.1/DTD/svg11.dtd"><svg t="1658396857794" class="icon" viewBox="0 0 1024 1024" version="1.1" xmlns="http://www.w3.org/2000/svg" p-id="13942" xmlns:xlink="http://www.w3.org/1999/xlink" width="200" height="200"><defs><style type="text/css">@font-face { font-family: feedback-iconfont; src: url("//at.alicdn.com/t/font_1031158_u69w8yhxdu.woff2?t=1630033759944") format("woff2"), url("//at.alicdn.com/t/font_1031158_u69w8yhxdu.woff?t=1630033759944") format("woff"), url("//at.alicdn.com/t/font_1031158_u69w8yhxdu.ttf?t=1630033759944") format("truetype"); }
</style></defs><path d="M510.21824 0C228.90496 0 0 229.10976 0 510.57664 0 792.064 228.90496 1021.0816 510.21824 1021.0816c281.30304 0 510.1568-229.0176 510.1568-510.50496C1020.37504 229.10976 791.52128 0 510.21824 0z m192.39936 545.61792H546.48832v157.5936c0 14.7456-21.01248 26.90048-35.86048 26.90048-14.848 0-35.82976-12.15488-35.82976-26.90048v-157.5936h-157.0816c-14.7968 0-26.86976-21.03296-26.86976-35.87072 0-14.83776 12.06272-35.91168 26.86976-35.91168h157.0816V318.01344c0-14.92992 20.98176-26.95168 35.82976-26.95168 14.848 0 35.86048 12.02176 35.86048 26.95168v155.83232h156.12928c14.98112 0 26.92096 21.07392 26.92096 35.91168 0 14.82752-12.02176 35.86048-26.92096 35.86048z" fill="#2B3B95" p-id="13943"></path></svg>